<?xml version="1.0" encoding="utf-8"?>
<svg xmlns="http://www.w3.org/2000/svg" xmlns:xlink="http://www.w3.org/1999/xlink" width="672" height="480" viewBox="0 0 2688 1920">
<defs>
  <clipPath id="clip530">
    <rect x="0" y="0" width="2688" height="1920"/>
  </clipPath>
</defs>
<path clip-path="url(#clip530)" d="
M0 1920 L2688 1920 L2688 0 L0 0  Z
  " fill="#ffffff" fill-rule="evenodd" fill-opacity="1"/>
<defs>
  <clipPath id="clip531">
    <rect x="537" y="0" width="1883" height="1883"/>
  </clipPath>
</defs>
<path clip-path="url(#clip530)" d="
M158.992 1800.78 L2640.76 1800.78 L2640.76 47.2441 L158.992 47.2441  Z
  " fill="#ffffff" fill-rule="evenodd" fill-opacity="1"/>
<defs>
  <clipPath id="clip532">
    <rect x="158" y="47" width="2483" height="1755"/>
  </clipPath>
</defs>
<polyline clip-path="url(#clip532)" style="stroke:#000000; stroke-linecap:round; stroke-linejoin:round; stroke-width:2; stroke-opacity:0.1; fill:none" points="
  614.667,1800.78 614.667,47.2441 
  "/>
<polyline clip-path="url(#clip532)" style="stroke:#000000; stroke-linecap:round; stroke-linejoin:round; stroke-width:2; stroke-opacity:0.1; fill:none" points="
  1196.34,1800.78 1196.34,47.2441 
  "/>
<polyline clip-path="url(#clip532)" style="stroke:#000000; stroke-linecap:round; stroke-linejoin:round; stroke-width:2; stroke-opacity:0.1; fill:none" points="
  1778.01,1800.78 1778.01,47.2441 
  "/>
<polyline clip-path="url(#clip532)" style="stroke:#000000; stroke-linecap:round; stroke-linejoin:round; stroke-width:2; stroke-opacity:0.1; fill:none" points="
  2359.68,1800.78 2359.68,47.2441 
  "/>
<polyline clip-path="url(#clip530)" style="stroke:#000000; stroke-linecap:round; stroke-linejoin:round; stroke-width:4; stroke-opacity:1; fill:none" points="
  158.992,1800.78 2640.76,1800.78 
  "/>
<polyline clip-path="url(#clip530)" style="stroke:#000000; stroke-linecap:round; stroke-linejoin:round; stroke-width:4; stroke-opacity:1; fill:none" points="
  614.667,1800.78 614.667,1781.88 
  "/>
<polyline clip-path="url(#clip530)" style="stroke:#000000; stroke-linecap:round; stroke-linejoin:round; stroke-width:4; stroke-opacity:1; fill:none" points="
  1196.34,1800.78 1196.34,1781.88 
  "/>
<polyline clip-path="url(#clip530)" style="stroke:#000000; stroke-linecap:round; stroke-linejoin:round; stroke-width:4; stroke-opacity:1; fill:none" points="
  1778.01,1800.78 1778.01,1781.88 
  "/>
<polyline clip-path="url(#clip530)" style="stroke:#000000; stroke-linecap:round; stroke-linejoin:round; stroke-width:4; stroke-opacity:1; fill:none" points="
  2359.68,1800.78 2359.68,1781.88 
  "/>
<path clip-path="url(#clip530)" d="M581.831 1830.92 L600.188 1830.92 L600.188 1834.86 L586.114 1834.86 L586.114 1843.33 Q587.132 1842.98 588.151 1842.82 Q589.169 1842.64 590.188 1842.64 Q595.975 1842.64 599.354 1845.81 Q602.734 1848.98 602.734 1854.4 Q602.734 1859.97 599.262 1863.08 Q595.789 1866.15 589.47 1866.15 Q587.294 1866.15 585.026 1865.78 Q582.78 1865.41 580.373 1864.67 L580.373 1859.97 Q582.456 1861.11 584.678 1861.66 Q586.901 1862.22 589.377 1862.22 Q593.382 1862.22 595.72 1860.11 Q598.058 1858.01 598.058 1854.4 Q598.058 1850.78 595.72 1848.68 Q593.382 1846.57 589.377 1846.57 Q587.502 1846.57 585.627 1846.99 Q583.776 1847.4 581.831 1848.28 L581.831 1830.92 Z" fill="#000000" fill-rule="evenodd" fill-opacity="1" /><path clip-path="url(#clip530)" d="M611.947 1859.6 L616.831 1859.6 L616.831 1865.48 L611.947 1865.48 L611.947 1859.6 Z" fill="#000000" fill-rule="evenodd" fill-opacity="1" /><path clip-path="url(#clip530)" d="M637.016 1834 Q633.405 1834 631.576 1837.57 Q629.771 1841.11 629.771 1848.24 Q629.771 1855.34 631.576 1858.91 Q633.405 1862.45 637.016 1862.45 Q640.65 1862.45 642.456 1858.91 Q644.285 1855.34 644.285 1848.24 Q644.285 1841.11 642.456 1837.57 Q640.65 1834 637.016 1834 M637.016 1830.3 Q642.826 1830.3 645.882 1834.9 Q648.96 1839.49 648.96 1848.24 Q648.96 1856.96 645.882 1861.57 Q642.826 1866.15 637.016 1866.15 Q631.206 1866.15 628.127 1861.57 Q625.072 1856.96 625.072 1848.24 Q625.072 1839.49 628.127 1834.9 Q631.206 1830.3 637.016 1830.3 Z" fill="#000000" fill-rule="evenodd" fill-opacity="1" /><path clip-path="url(#clip530)" d="M1164 1830.92 L1182.36 1830.92 L1182.36 1834.86 L1168.28 1834.86 L1168.28 1843.33 Q1169.3 1842.98 1170.32 1842.82 Q1171.34 1842.64 1172.36 1842.64 Q1178.14 1842.64 1181.52 1845.81 Q1184.9 1848.98 1184.9 1854.4 Q1184.9 1859.97 1181.43 1863.08 Q1177.96 1866.15 1171.64 1866.15 Q1169.46 1866.15 1167.2 1865.78 Q1164.95 1865.41 1162.54 1864.67 L1162.54 1859.97 Q1164.63 1861.11 1166.85 1861.66 Q1169.07 1862.22 1171.55 1862.22 Q1175.55 1862.22 1177.89 1860.11 Q1180.23 1858.01 1180.23 1854.4 Q1180.23 1850.78 1177.89 1848.68 Q1175.55 1846.57 1171.55 1846.57 Q1169.67 1846.57 1167.8 1846.99 Q1165.95 1847.4 1164 1848.28 L1164 1830.92 Z" fill="#000000" fill-rule="evenodd" fill-opacity="1" /><path clip-path="url(#clip530)" d="M1194.12 1859.6 L1199 1859.6 L1199 1865.48 L1194.12 1865.48 L1194.12 1859.6 Z" fill="#000000" fill-rule="evenodd" fill-opacity="1" /><path clip-path="url(#clip530)" d="M1209.23 1830.92 L1227.59 1830.92 L1227.59 1834.86 L1213.51 1834.86 L1213.51 1843.33 Q1214.53 1842.98 1215.55 1842.82 Q1216.57 1842.64 1217.59 1842.64 Q1223.38 1842.64 1226.76 1845.81 Q1230.13 1848.98 1230.13 1854.4 Q1230.13 1859.97 1226.66 1863.08 Q1223.19 1866.15 1216.87 1866.15 Q1214.7 1866.15 1212.43 1865.78 Q1210.18 1865.41 1207.77 1864.67 L1207.77 1859.97 Q1209.86 1861.11 1212.08 1861.66 Q1214.3 1862.22 1216.78 1862.22 Q1220.78 1862.22 1223.12 1860.11 Q1225.46 1858.01 1225.46 1854.4 Q1225.46 1850.78 1223.12 1848.68 Q1220.78 1846.57 1216.78 1846.57 Q1214.9 1846.57 1213.03 1846.99 Q1211.18 1847.4 1209.23 1848.28 L1209.23 1830.92 Z" fill="#000000" fill-rule="evenodd" fill-opacity="1" /><path clip-path="url(#clip530)" d="M1755.88 1846.34 Q1752.73 1846.34 1750.88 1848.49 Q1749.05 1850.65 1749.05 1854.4 Q1749.05 1858.12 1750.88 1860.3 Q1752.73 1862.45 1755.88 1862.45 Q1759.03 1862.45 1760.86 1860.3 Q1762.71 1858.12 1762.71 1854.4 Q1762.71 1850.65 1760.86 1848.49 Q1759.03 1846.34 1755.88 1846.34 M1765.16 1831.69 L1765.16 1835.95 Q1763.4 1835.11 1761.6 1834.67 Q1759.82 1834.23 1758.06 1834.23 Q1753.43 1834.23 1750.97 1837.36 Q1748.54 1840.48 1748.2 1846.8 Q1749.56 1844.79 1751.62 1843.72 Q1753.68 1842.64 1756.16 1842.64 Q1761.37 1842.64 1764.38 1845.81 Q1767.41 1848.96 1767.41 1854.4 Q1767.41 1859.72 1764.26 1862.94 Q1761.11 1866.15 1755.88 1866.15 Q1749.89 1866.15 1746.71 1861.57 Q1743.54 1856.96 1743.54 1848.24 Q1743.54 1840.04 1747.43 1835.18 Q1751.32 1830.3 1757.87 1830.3 Q1759.63 1830.3 1761.41 1830.65 Q1763.22 1830.99 1765.16 1831.69 Z" fill="#000000" fill-rule="evenodd" fill-opacity="1" /><path clip-path="url(#clip530)" d="M1775.46 1859.6 L1780.35 1859.6 L1780.35 1865.48 L1775.46 1865.48 L1775.46 1859.6 Z" fill="#000000" fill-rule="evenodd" fill-opacity="1" /><path clip-path="url(#clip530)" d="M1800.53 1834 Q1796.92 1834 1795.09 1837.57 Q1793.29 1841.11 1793.29 1848.24 Q1793.29 1855.34 1795.09 1858.91 Q1796.92 1862.45 1800.53 1862.45 Q1804.17 1862.45 1805.97 1858.91 Q1807.8 1855.34 1807.8 1848.24 Q1807.8 1841.11 1805.97 1837.57 Q1804.17 1834 1800.53 1834 M1800.53 1830.3 Q1806.34 1830.3 1809.4 1834.9 Q1812.48 1839.49 1812.48 1848.24 Q1812.48 1856.96 1809.4 1861.57 Q1806.34 1866.15 1800.53 1866.15 Q1794.72 1866.15 1791.65 1861.57 Q1788.59 1856.96 1788.59 1848.24 Q1788.59 1839.49 1791.65 1834.9 Q1794.72 1830.3 1800.53 1830.3 Z" fill="#000000" fill-rule="evenodd" fill-opacity="1" /><path clip-path="url(#clip530)" d="M2338.05 1846.34 Q2334.9 1846.34 2333.05 1848.49 Q2331.22 1850.65 2331.22 1854.4 Q2331.22 1858.12 2333.05 1860.3 Q2334.9 1862.45 2338.05 1862.45 Q2341.2 1862.45 2343.03 1860.3 Q2344.88 1858.12 2344.88 1854.4 Q2344.88 1850.65 2343.03 1848.49 Q2341.2 1846.34 2338.05 1846.34 M2347.33 1831.69 L2347.33 1835.95 Q2345.57 1835.11 2343.77 1834.67 Q2341.99 1834.23 2340.23 1834.23 Q2335.6 1834.23 2333.14 1837.36 Q2330.71 1840.48 2330.37 1846.8 Q2331.73 1844.79 2333.79 1843.72 Q2335.85 1842.64 2338.33 1842.64 Q2343.54 1842.64 2346.55 1845.81 Q2349.58 1848.96 2349.58 1854.4 Q2349.58 1859.72 2346.43 1862.94 Q2343.28 1866.15 2338.05 1866.15 Q2332.06 1866.15 2328.88 1861.57 Q2325.71 1856.96 2325.71 1848.24 Q2325.71 1840.04 2329.6 1835.18 Q2333.49 1830.3 2340.04 1830.3 Q2341.8 1830.3 2343.58 1830.65 Q2345.39 1830.99 2347.33 1831.69 Z" fill="#000000" fill-rule="evenodd" fill-opacity="1" /><path clip-path="url(#clip530)" d="M2357.63 1859.6 L2362.52 1859.6 L2362.52 1865.48 L2357.63 1865.48 L2357.63 1859.6 Z" fill="#000000" fill-rule="evenodd" fill-opacity="1" /><path clip-path="url(#clip530)" d="M2372.75 1830.92 L2391.11 1830.92 L2391.11 1834.86 L2377.03 1834.86 L2377.03 1843.33 Q2378.05 1842.98 2379.07 1842.82 Q2380.09 1842.64 2381.11 1842.64 Q2386.89 1842.64 2390.27 1845.81 Q2393.65 1848.98 2393.65 1854.4 Q2393.65 1859.97 2390.18 1863.08 Q2386.71 1866.15 2380.39 1866.15 Q2378.21 1866.15 2375.94 1865.78 Q2373.7 1865.41 2371.29 1864.67 L2371.29 1859.97 Q2373.38 1861.11 2375.6 1861.66 Q2377.82 1862.22 2380.3 1862.22 Q2384.3 1862.22 2386.64 1860.11 Q2388.98 1858.01 2388.98 1854.4 Q2388.98 1850.78 2386.64 1848.68 Q2384.3 1846.57 2380.3 1846.57 Q2378.42 1846.57 2376.55 1846.99 Q2374.69 1847.4 2372.75 1848.28 L2372.75 1830.92 Z" fill="#000000" fill-rule="evenodd" fill-opacity="1" /><polyline clip-path="url(#clip532)" style="stroke:#000000; stroke-linecap:round; stroke-linejoin:round; stroke-width:2; stroke-opacity:0.1; fill:none" points="
  158.992,1751.15 2640.76,1751.15 
  "/>
<polyline clip-path="url(#clip532)" style="stroke:#000000; stroke-linecap:round; stroke-linejoin:round; stroke-width:2; stroke-opacity:0.1; fill:none" points="
  158.992,1323.8 2640.76,1323.8 
  "/>
<polyline clip-path="url(#clip532)" style="stroke:#000000; stroke-linecap:round; stroke-linejoin:round; stroke-width:2; stroke-opacity:0.1; fill:none" points="
  158.992,896.437 2640.76,896.437 
  "/>
<polyline clip-path="url(#clip532)" style="stroke:#000000; stroke-linecap:round; stroke-linejoin:round; stroke-width:2; stroke-opacity:0.1; fill:none" points="
  158.992,469.078 2640.76,469.078 
  "/>
<polyline clip-path="url(#clip530)" style="stroke:#000000; stroke-linecap:round; stroke-linejoin:round; stroke-width:4; stroke-opacity:1; fill:none" points="
  158.992,1800.78 158.992,47.2441 
  "/>
<polyline clip-path="url(#clip530)" style="stroke:#000000; stroke-linecap:round; stroke-linejoin:round; stroke-width:4; stroke-opacity:1; fill:none" points="
  158.992,1751.15 177.89,1751.15 
  "/>
<polyline clip-path="url(#clip530)" style="stroke:#000000; stroke-linecap:round; stroke-linejoin:round; stroke-width:4; stroke-opacity:1; fill:none" points="
  158.992,1323.8 177.89,1323.8 
  "/>
<polyline clip-path="url(#clip530)" style="stroke:#000000; stroke-linecap:round; stroke-linejoin:round; stroke-width:4; stroke-opacity:1; fill:none" points="
  158.992,896.437 177.89,896.437 
  "/>
<polyline clip-path="url(#clip530)" style="stroke:#000000; stroke-linecap:round; stroke-linejoin:round; stroke-width:4; stroke-opacity:1; fill:none" points="
  158.992,469.078 177.89,469.078 
  "/>
<path clip-path="url(#clip530)" d="M61.4965 1736.95 Q57.8854 1736.95 56.0567 1740.52 Q54.2512 1744.06 54.2512 1751.19 Q54.2512 1758.3 56.0567 1761.86 Q57.8854 1765.4 61.4965 1765.4 Q65.1307 1765.4 66.9363 1761.86 Q68.765 1758.3 68.765 1751.19 Q68.765 1744.06 66.9363 1740.52 Q65.1307 1736.95 61.4965 1736.95 M61.4965 1733.25 Q67.3067 1733.25 70.3622 1737.86 Q73.4409 1742.44 73.4409 1751.19 Q73.4409 1759.92 70.3622 1764.52 Q67.3067 1769.11 61.4965 1769.11 Q55.6864 1769.11 52.6077 1764.52 Q49.5521 1759.92 49.5521 1751.19 Q49.5521 1742.44 52.6077 1737.86 Q55.6864 1733.25 61.4965 1733.25 Z" fill="#000000" fill-rule="evenodd" fill-opacity="1" /><path clip-path="url(#clip530)" d="M81.6584 1762.55 L86.5427 1762.55 L86.5427 1768.43 L81.6584 1768.43 L81.6584 1762.55 Z" fill="#000000" fill-rule="evenodd" fill-opacity="1" /><path clip-path="url(#clip530)" d="M106.728 1736.95 Q103.117 1736.95 101.288 1740.52 Q99.4824 1744.06 99.4824 1751.19 Q99.4824 1758.3 101.288 1761.86 Q103.117 1765.4 106.728 1765.4 Q110.362 1765.4 112.168 1761.86 Q113.996 1758.3 113.996 1751.19 Q113.996 1744.06 112.168 1740.52 Q110.362 1736.95 106.728 1736.95 M106.728 1733.25 Q112.538 1733.25 115.593 1737.86 Q118.672 1742.44 118.672 1751.19 Q118.672 1759.92 115.593 1764.52 Q112.538 1769.11 106.728 1769.11 Q100.918 1769.11 97.8389 1764.52 Q94.7834 1759.92 94.7834 1751.19 Q94.7834 1742.44 97.8389 1737.86 Q100.918 1733.25 106.728 1733.25 Z" fill="#000000" fill-rule="evenodd" fill-opacity="1" /><path clip-path="url(#clip530)" d="M62.4919 1309.59 Q58.8808 1309.59 57.0521 1313.16 Q55.2465 1316.7 55.2465 1323.83 Q55.2465 1330.94 57.0521 1334.5 Q58.8808 1338.04 62.4919 1338.04 Q66.1261 1338.04 67.9317 1334.5 Q69.7604 1330.94 69.7604 1323.83 Q69.7604 1316.7 67.9317 1313.16 Q66.1261 1309.59 62.4919 1309.59 M62.4919 1305.89 Q68.302 1305.89 71.3576 1310.5 Q74.4363 1315.08 74.4363 1323.83 Q74.4363 1332.56 71.3576 1337.16 Q68.302 1341.75 62.4919 1341.75 Q56.6817 1341.75 53.603 1337.16 Q50.5475 1332.56 50.5475 1323.83 Q50.5475 1315.08 53.603 1310.5 Q56.6817 1305.89 62.4919 1305.89 Z" fill="#000000" fill-rule="evenodd" fill-opacity="1" /><path clip-path="url(#clip530)" d="M82.6538 1335.2 L87.538 1335.2 L87.538 1341.08 L82.6538 1341.08 L82.6538 1335.2 Z" fill="#000000" fill-rule="evenodd" fill-opacity="1" /><path clip-path="url(#clip530)" d="M97.7695 1306.52 L116.126 1306.52 L116.126 1310.45 L102.052 1310.45 L102.052 1318.92 Q103.07 1318.58 104.089 1318.41 Q105.107 1318.23 106.126 1318.23 Q111.913 1318.23 115.293 1321.4 Q118.672 1324.57 118.672 1329.99 Q118.672 1335.57 115.2 1338.67 Q111.728 1341.75 105.408 1341.75 Q103.232 1341.75 100.964 1341.38 Q98.7185 1341.01 96.3111 1340.27 L96.3111 1335.57 Q98.3945 1336.7 100.617 1337.26 Q102.839 1337.81 105.316 1337.81 Q109.32 1337.81 111.658 1335.71 Q113.996 1333.6 113.996 1329.99 Q113.996 1326.38 111.658 1324.27 Q109.32 1322.16 105.316 1322.16 Q103.441 1322.16 101.566 1322.58 Q99.7139 1323 97.7695 1323.88 L97.7695 1306.52 Z" fill="#000000" fill-rule="evenodd" fill-opacity="1" /><path clip-path="url(#clip530)" d="M52.3067 909.782 L59.9456 909.782 L59.9456 883.416 L51.6354 885.083 L51.6354 880.824 L59.8993 879.157 L64.5752 879.157 L64.5752 909.782 L72.214 909.782 L72.214 913.717 L52.3067 913.717 L52.3067 909.782 Z" fill="#000000" fill-rule="evenodd" fill-opacity="1" /><path clip-path="url(#clip530)" d="M81.6584 907.838 L86.5427 907.838 L86.5427 913.717 L81.6584 913.717 L81.6584 907.838 Z" fill="#000000" fill-rule="evenodd" fill-opacity="1" /><path clip-path="url(#clip530)" d="M106.728 882.236 Q103.117 882.236 101.288 885.801 Q99.4824 889.342 99.4824 896.472 Q99.4824 903.578 101.288 907.143 Q103.117 910.685 106.728 910.685 Q110.362 910.685 112.168 907.143 Q113.996 903.578 113.996 896.472 Q113.996 889.342 112.168 885.801 Q110.362 882.236 106.728 882.236 M106.728 878.532 Q112.538 878.532 115.593 883.139 Q118.672 887.722 118.672 896.472 Q118.672 905.199 115.593 909.805 Q112.538 914.388 106.728 914.388 Q100.918 914.388 97.8389 909.805 Q94.7834 905.199 94.7834 896.472 Q94.7834 887.722 97.8389 883.139 Q100.918 878.532 106.728 878.532 Z" fill="#000000" fill-rule="evenodd" fill-opacity="1" /><path clip-path="url(#clip530)" d="M53.3021 482.423 L60.941 482.423 L60.941 456.058 L52.6308 457.724 L52.6308 453.465 L60.8947 451.798 L65.5706 451.798 L65.5706 482.423 L73.2094 482.423 L73.2094 486.358 L53.3021 486.358 L53.3021 482.423 Z" fill="#000000" fill-rule="evenodd" fill-opacity="1" /><path clip-path="url(#clip530)" d="M82.6538 480.479 L87.538 480.479 L87.538 486.358 L82.6538 486.358 L82.6538 480.479 Z" fill="#000000" fill-rule="evenodd" fill-opacity="1" /><path clip-path="url(#clip530)" d="M97.7695 451.798 L116.126 451.798 L116.126 455.734 L102.052 455.734 L102.052 464.206 Q103.07 463.859 104.089 463.697 Q105.107 463.511 106.126 463.511 Q111.913 463.511 115.293 466.683 Q118.672 469.854 118.672 475.271 Q118.672 480.849 115.2 483.951 Q111.728 487.03 105.408 487.03 Q103.232 487.03 100.964 486.659 Q98.7185 486.289 96.3111 485.548 L96.3111 480.849 Q98.3945 481.983 100.617 482.539 Q102.839 483.095 105.316 483.095 Q109.32 483.095 111.658 480.988 Q113.996 478.882 113.996 475.271 Q113.996 471.659 111.658 469.553 Q109.32 467.446 105.316 467.446 Q103.441 467.446 101.566 467.863 Q99.7139 468.28 97.7695 469.159 L97.7695 451.798 Z" fill="#000000" fill-rule="evenodd" fill-opacity="1" /><polyline clip-path="url(#clip532)" style="stroke:#009af9; stroke-linecap:round; stroke-linejoin:round; stroke-width:4; stroke-opacity:1; fill:none" points="
  491.661,1751.15 502.108,1751.15 512.554,1751.14 523.001,1751.13 533.447,1751.11 543.894,1751.07 554.34,1751.01 564.787,1750.9 575.233,1750.73 585.68,1750.47 
  596.126,1750.08 606.573,1749.53 617.019,1748.78 627.466,1747.77 637.912,1746.48 648.359,1744.87 658.806,1742.93 669.252,1740.64 679.699,1738.02 690.145,1735.07 
  700.592,1731.77 711.038,1728.12 721.485,1724.07 731.931,1719.56 742.378,1714.48 752.824,1708.73 763.271,1702.18 773.717,1694.74 784.164,1686.31 794.61,1676.86 
  805.057,1666.4 815.503,1654.98 825.95,1642.72 836.396,1629.78 846.843,1616.31 857.289,1602.47 867.736,1588.36 878.182,1573.98 888.629,1559.26 899.075,1544.04 
  909.522,1528.05 919.968,1511.03 930.415,1492.72 940.861,1473 951.308,1451.84 961.754,1429.42 972.201,1406.06 982.647,1382.2 993.094,1358.28 1003.54,1334.67 
  1013.99,1311.54 1024.43,1288.82 1034.88,1266.15 1045.33,1242.91 1055.77,1218.32 1066.22,1191.57 1076.67,1161.94 1087.11,1128.9 1097.56,1092.25 1108.01,1052.1 
  1118.45,1008.86 1128.9,963.214 1139.35,916.003 1149.79,868.16 1160.24,820.625 1170.68,774.274 1181.13,729.868 1191.58,688.01 1202.02,649.106 1212.47,613.35 
  1222.92,580.704 1233.36,550.903 1243.81,523.475 1254.26,497.785 1264.7,473.094 1275.15,448.637 1285.6,423.711 1296.04,397.765 1306.49,370.484 1316.94,341.854 
  1327.38,312.196 1337.83,282.166 1348.28,252.694 1358.72,224.886 1369.17,199.871 1379.61,178.638 1390.06,161.878 1400.51,149.878 1410.95,142.483 1421.4,139.155 
  1431.85,139.105 1442.29,141.479 1452.74,145.555 1463.19,150.895 1473.63,157.422 1484.08,165.418 1494.53,175.433 1504.97,188.153 1515.42,204.255 1525.87,224.285 
  1536.31,248.586 1546.76,277.273 1557.21,310.254 1567.65,347.278 1578.1,387.997 1588.55,432.02 1598.99,478.958 1609.44,528.448 1619.88,580.158 1630.33,633.765 
  1640.78,688.922 1651.22,745.204 1661.67,802.068 1672.12,858.823 1682.56,914.632 1693.01,968.549 1703.46,1019.59 1713.9,1066.82 1724.35,1109.47 1734.8,1146.98 
  1745.24,1179.14 1755.69,1206.05 1766.14,1228.18 1776.58,1246.28 1787.03,1261.34 1797.48,1274.51 1807.92,1286.99 1818.37,1299.93 1828.81,1314.3 1839.26,1330.88 
  1849.71,1350.1 1860.15,1372.09 1870.6,1396.59 1881.05,1423.06 1891.49,1450.72 1901.94,1478.63 1912.39,1505.82 1922.83,1531.45 1933.28,1554.8 1943.73,1575.45 
  1954.17,1593.22 1964.62,1608.2 1975.07,1620.68 1985.51,1631.12 1995.96,1640.02 2006.41,1647.9 2016.85,1655.18 2027.3,1662.2 2037.75,1669.17 2048.19,1676.19 
  2058.64,1683.25 2069.08,1690.28 2079.53,1697.19 2089.98,1703.86 2100.42,1710.19 2110.87,1716.1 2121.32,1721.52 2131.76,1726.44 2142.21,1730.83 2152.66,1734.7 
  2163.1,1738.05 2173.55,1740.9 2184,1743.27 2194.44,1745.19 2204.89,1746.68 2215.34,1747.78 2225.78,1748.52 2236.23,1748.94 2246.68,1749.05 2257.12,1748.91 
  2267.57,1748.53 2278.01,1747.97 2288.46,1747.27 2298.91,1746.49 2309.35,1745.71 2319.8,1744.99 2330.25,1744.42 2340.69,1744.05 2351.14,1743.92 2361.59,1744.05 
  2372.03,1744.43 2382.48,1745.01 2392.93,1745.74 2403.37,1746.56 2413.82,1747.39 2424.27,1748.18 2434.71,1748.89 2445.16,1749.49 2455.61,1749.97 2466.05,1750.35 
  2476.5,1750.62 2486.95,1750.82 2497.39,1750.95 2507.84,1751.03 2518.28,1751.08 2528.73,1751.12 2539.18,1751.13 2549.62,1751.14 2560.07,1751.15 2570.52,1751.15 
  
  "/>
<polyline clip-path="url(#clip532)" style="stroke:#e26f46; stroke-linecap:round; stroke-linejoin:round; stroke-width:4; stroke-opacity:1; fill:none" points="
  229.231,1751.15 240.439,1751.15 251.647,1751.14 262.855,1751.13 274.064,1751.11 285.272,1751.07 296.48,1751.01 307.688,1750.9 318.896,1750.74 330.105,1750.5 
  341.313,1750.16 352.521,1749.7 363.729,1749.12 374.937,1748.42 386.145,1747.61 397.354,1746.75 408.562,1745.91 419.77,1745.14 430.978,1744.53 442.186,1744.15 
  453.395,1744.05 464.603,1744.22 475.811,1744.64 487.019,1745.28 498.227,1746.04 509.436,1746.83 520.644,1747.58 531.852,1748.2 543.06,1748.62 554.268,1748.79 
  565.477,1748.67 576.685,1748.21 587.893,1747.39 599.101,1746.15 610.309,1744.46 621.518,1742.27 632.726,1739.54 643.934,1736.22 655.142,1732.3 666.35,1727.78 
  677.559,1722.71 688.767,1717.19 699.975,1711.34 711.183,1705.32 722.391,1699.25 733.6,1693.22 744.808,1687.21 756.016,1681.14 767.224,1674.85 778.432,1668.14 
  789.641,1660.8 800.849,1652.7 812.057,1643.73 823.265,1633.86 834.473,1623.07 845.682,1611.33 856.89,1598.55 868.098,1584.6 879.306,1569.3 890.514,1552.46 
  901.723,1533.91 912.931,1513.57 924.139,1491.41 935.347,1467.5 946.555,1442 957.764,1415.14 968.972,1387.28 980.18,1358.86 991.388,1330.44 1002.6,1302.66 
  1013.8,1276.15 1025.01,1251.43 1036.22,1228.74 1047.43,1207.97 1058.64,1188.51 1069.85,1169.3 1081.05,1148.92 1092.26,1125.84 1103.47,1098.63 1114.68,1066.24 
  1125.89,1028.22 1137.09,984.741 1148.3,936.604 1159.51,885.023 1170.72,831.387 1181.93,776.987 1193.14,722.793 1204.34,669.338 1215.55,616.713 1226.76,564.684 
  1237.97,512.882 1249.18,461.017 1260.38,409.074 1271.59,357.439 1282.8,306.937 1294.01,258.785 1305.22,214.457 1316.43,175.506 1327.63,143.364 1338.84,119.164 
  1350.05,103.603 1361.26,96.8724 1372.47,98.6567 1383.68,108.192 1394.88,124.368 1406.09,145.842 1417.3,171.167 1428.51,198.905 1439.72,227.733 1450.92,256.53 
  1462.13,284.458 1473.34,311.007 1484.55,336.002 1495.76,359.571 1506.97,382.061 1518.17,403.933 1529.38,425.646 1540.59,447.577 1551.8,469.987 1563.01,493.039 
  1574.21,516.868 1585.42,541.652 1596.63,567.677 1607.84,595.354 1619.05,625.174 1630.26,657.622 1641.46,693.055 1652.67,731.58 1663.88,772.976 1675.09,816.665 
  1686.3,861.762 1697.5,907.184 1708.71,951.82 1719.92,994.693 1731.13,1035.12 1742.34,1072.81 1753.55,1107.86 1764.75,1140.69 1775.96,1171.94 1787.17,1202.29 
  1798.38,1232.35 1809.59,1262.51 1820.79,1292.94 1832,1323.64 1843.21,1354.41 1854.42,1385.02 1865.63,1415.21 1876.84,1444.73 1888.04,1473.38 1899.25,1500.93 
  1910.46,1527.18 1921.67,1551.89 1932.88,1574.82 1944.08,1595.75 1955.29,1614.56 1966.5,1631.19 1977.71,1645.74 1988.92,1658.38 2000.13,1669.36 2011.33,1678.97 
  2022.54,1687.44 2033.75,1694.94 2044.96,1701.57 2056.17,1707.34 2067.38,1712.22 2078.58,1716.16 2089.79,1719.17 2101,1721.29 2112.21,1722.65 2123.42,1723.42 
  2134.62,1723.84 2145.83,1724.13 2157.04,1724.49 2168.25,1725.08 2179.46,1726.01 2190.67,1727.29 2201.87,1728.92 2213.08,1730.82 2224.29,1732.91 2235.5,1735.12 
  2246.71,1737.35 2257.91,1739.53 2269.12,1741.59 2280.33,1743.47 2291.54,1745.15 2302.75,1746.59 2313.96,1747.79 2325.16,1748.75 2336.37,1749.49 2347.58,1750.04 
  2358.79,1750.44 2370,1750.71 2381.2,1750.89 2392.41,1751 2403.62,1751.07 2414.83,1751.11 2426.04,1751.13 2437.25,1751.14 2448.45,1751.15 2459.66,1751.15 
  
  "/>
<path clip-path="url(#clip530)" d="
M2257.42 261.215 L2558.03 261.215 L2558.03 105.695 L2257.42 105.695  Z
  " fill="#ffffff" fill-rule="evenodd" fill-opacity="1"/>
<polyline clip-path="url(#clip530)" style="stroke:#000000; stroke-linecap:round; stroke-linejoin:round; stroke-width:4; stroke-opacity:1; fill:none" points="
  2257.42,261.215 2558.03,261.215 2558.03,105.695 2257.42,105.695 2257.42,261.215 
  "/>
<polyline clip-path="url(#clip530)" style="stroke:#009af9; stroke-linecap:round; stroke-linejoin:round; stroke-width:4; stroke-opacity:1; fill:none" points="
  2285,157.535 2450.45,157.535 
  "/>
<path clip-path="url(#clip530)" d="M2491.87 177.223 Q2490.06 181.852 2488.35 183.264 Q2486.64 184.676 2483.77 184.676 L2480.36 184.676 L2480.36 181.112 L2482.86 181.112 Q2484.62 181.112 2485.59 180.278 Q2486.57 179.445 2487.75 176.343 L2488.51 174.399 L2478.03 148.889 L2482.54 148.889 L2490.64 169.167 L2498.74 148.889 L2503.26 148.889 L2491.87 177.223 Z" fill="#000000" fill-rule="evenodd" fill-opacity="1" /><path clip-path="url(#clip530)" d="M2510.55 170.88 L2518.19 170.88 L2518.19 144.515 L2509.88 146.181 L2509.88 141.922 L2518.14 140.255 L2522.82 140.255 L2522.82 170.88 L2530.46 170.88 L2530.46 174.815 L2510.55 174.815 L2510.55 170.88 Z" fill="#000000" fill-rule="evenodd" fill-opacity="1" /><polyline clip-path="url(#clip530)" style="stroke:#e26f46; stroke-linecap:round; stroke-linejoin:round; stroke-width:4; stroke-opacity:1; fill:none" points="
  2285,209.375 2450.45,209.375 
  "/>
<path clip-path="url(#clip530)" d="M2491.87 229.063 Q2490.06 233.692 2488.35 235.104 Q2486.64 236.516 2483.77 236.516 L2480.36 236.516 L2480.36 232.952 L2482.86 232.952 Q2484.62 232.952 2485.59 232.118 Q2486.57 231.285 2487.75 228.183 L2488.51 226.239 L2478.03 200.729 L2482.54 200.729 L2490.64 221.007 L2498.74 200.729 L2503.26 200.729 L2491.87 229.063 Z" fill="#000000" fill-rule="evenodd" fill-opacity="1" /><path clip-path="url(#clip530)" d="M2513.77 222.72 L2530.08 222.72 L2530.08 226.655 L2508.14 226.655 L2508.14 222.72 Q2510.8 219.965 2515.39 215.336 Q2519.99 210.683 2521.17 209.341 Q2523.42 206.817 2524.3 205.081 Q2525.2 203.322 2525.2 201.632 Q2525.2 198.878 2523.26 197.142 Q2521.33 195.405 2518.23 195.405 Q2516.03 195.405 2513.58 196.169 Q2511.15 196.933 2508.37 198.484 L2508.37 193.762 Q2511.2 192.628 2513.65 192.049 Q2516.1 191.47 2518.14 191.47 Q2523.51 191.47 2526.71 194.155 Q2529.9 196.841 2529.9 201.331 Q2529.9 203.461 2529.09 205.382 Q2528.3 207.28 2526.2 209.873 Q2525.62 210.544 2522.52 213.762 Q2519.41 216.956 2513.77 222.72 Z" fill="#000000" fill-rule="evenodd" fill-opacity="1" /></svg>
